<svg width="24" height="24" viewBox="0 0 24 24" fill="none" xmlns="http://www.w3.org/2000/svg">
<g id="&#208;&#151;&#208;&#176;&#208;&#186;&#209;&#128;&#209;&#139;&#209;&#130;&#209;&#140;">
<path id="Union" fill-rule="evenodd" clip-rule="evenodd" d="M18.7313 5.26872C18.373 4.91043 17.7921 4.91043 17.4338 5.26872L12 10.7025L6.56622 5.26872C6.20793 4.91043 5.62702 4.91043 5.26872 5.26872C4.91043 5.62702 4.91043 6.20793 5.26872 6.56623L10.7025 12L5.26872 17.4338C4.91043 17.7921 4.91043 18.373 5.26872 18.7313C5.62702 19.0896 6.20793 19.0896 6.56623 18.7313L12 13.2975L17.4338 18.7313C17.7921 19.0896 18.373 19.0896 18.7313 18.7313C19.0896 18.373 19.0896 17.7921 18.7313 17.4338L13.2975 12L18.7313 6.56623C19.0896 6.20793 19.0896 5.62702 18.7313 5.26872Z" fill="white"/>
</g>
</svg>
