<svg width="183" height="34" viewBox="0 0 183 34" fill="none" xmlns="http://www.w3.org/2000/svg">
<g id="Frame" clip-path="url(#clip0_4_312)">
<path id="Vector" fill-rule="evenodd" clip-rule="evenodd" d="M15.3856 3.88377C14.3011 3.47495 13.4878 2.92986 11.4544 2.92986V0.136273C14.7756 0.136273 14.8433 1.56713 18.1644 1.56713C21.4856 1.56713 21.4856 0.136273 24.8744 0.136273V2.998C22.8411 2.998 22.0278 3.54309 20.9433 3.9519V6.9499C23.7222 6.9499 36.3289 6.06413 36.3289 17.0341C36.3289 28.004 23.7222 27.1182 20.9433 27.1182V31.1383H24.8744V34H11.4544V31.1383H15.3856V27.1182C12.6067 27.1182 0 28.004 0 17.0341C0 6.06413 12.6067 6.9499 15.3856 6.9499V3.88377ZM131.76 2.52104C139.487 3.27054 145.587 9.47094 145.587 17.0341C145.587 25.0742 138.673 31.6834 130.201 31.6834C121.729 31.6834 114.816 25.1423 114.816 17.0341C114.816 9.47094 120.848 3.2024 128.642 2.52104V0H131.76V2.52104ZM39.7178 5.79158V2.92986H53.1378V5.79158H49.2067V25.8918L58.8989 10.1523C59.6445 8.92585 61.4744 5.92786 63.5078 4.22445C64.9989 2.998 65.6089 2.998 68.7267 2.998C73.81 2.998 73.81 2.998 73.81 2.998V5.85972H69.8789V28.3447H73.81V31.2064H60.2545V28.3447H64.1856V8.24449L54.4933 23.984C53.8156 25.1423 51.9856 28.1403 49.9522 29.9118C48.4611 31.2064 47.8511 31.2064 44.7333 31.2064C39.65 31.2064 39.65 31.2064 39.65 31.2064V28.3447H43.5811V5.79158H39.7178ZM149.043 5.79158V2.92986H162.463V5.79158H158.532V15.3307H173.579V5.79158H169.648V2.92986H183V5.79158H179.069V28.2766H183V31.1383H169.58V28.2766H173.511V18.1924H158.464V28.2766H162.396V31.1383H148.976V28.2766H152.907V5.79158H149.043ZM77.47 5.79158V2.92986H90.8222V5.79158H86.8911V15.3307H101.938V5.79158H98.0067V2.92986H111.427V5.79158H107.496V28.2766H111.427V31.1383H98.0067V28.2766H101.938V18.1924H86.8911V28.2766H90.8222V31.1383H77.4022V28.2766H81.3333V5.79158H77.47ZM131.76 4.83768V10.9018H128.642V4.83768C124.508 5.85972 121.322 10.6974 121.322 17.0341C121.322 24.1884 125.321 29.3667 130.269 29.3667C135.217 29.3667 139.216 24.1202 139.216 17.0341C139.148 10.6974 135.962 5.85972 131.76 4.83768ZM20.8756 24.8697C23.7222 24.8697 29.8222 25.5511 29.8222 17.0341C29.8222 8.51703 23.6544 9.1984 20.8756 9.1984V24.8697ZM15.3856 9.1984C12.6744 9.1984 6.43889 8.51703 6.43889 17.0341C6.43889 25.5511 12.5389 24.8697 15.3856 24.8697V9.1984Z" fill="#3F5199"/>
</g>
<defs>
<clipPath id="clip0_4_312">
<rect width="183" height="34" fill="white"/>
</clipPath>
</defs>
</svg>
