<svg width="24" height="25" viewBox="0 0 24 25" fill="none" xmlns="http://www.w3.org/2000/svg">
<g id="Phone">
<path id="Vector (Stroke)" fill-rule="evenodd" clip-rule="evenodd" d="M12.1467 4.11031C12.0938 4.08977 12.0374 4.08053 11.9811 4.08304C11.9247 4.08556 11.8697 4.09976 11.8195 4.12463C11.771 4.14867 11.7279 4.18221 11.6927 4.22323C10.4229 5.79794 9.54168 7.65006 9.12036 9.63013L9.11853 9.63872C8.71433 11.4597 8.71612 13.3484 9.12402 15.1706L9.12604 15.1796C9.54853 17.1523 10.4268 18.9997 11.6906 20.5738C11.7264 20.6154 11.7702 20.6493 11.8194 20.6737C11.8704 20.699 11.926 20.7133 11.9826 20.7158C12.0392 20.7183 12.0955 20.7089 12.1479 20.6884C12.2003 20.6679 12.2478 20.6368 12.2873 20.5969L12.2901 20.5941L13.7804 19.1038C13.7863 19.0979 13.7922 19.0921 13.7982 19.0864C13.8698 19.0183 13.914 18.9261 13.9221 18.8269C13.9301 18.7287 13.9021 18.6303 13.8429 18.5504C13.3836 17.9512 12.9934 17.3023 12.6795 16.6158L12.6785 16.6136C12.6461 16.5424 12.594 16.4818 12.5283 16.4392C12.4631 16.3969 12.3875 16.3741 12.3105 16.3733L11.0511 16.372C10.6016 16.3716 10.2077 16.0713 10.0881 15.638C9.50133 13.5114 9.49903 11.2667 10.0818 9.14066C10.2009 8.70585 10.5963 8.40456 11.0472 8.405L12.3065 8.40625C12.3835 8.40553 12.4584 8.38295 12.5226 8.34139C12.5873 8.29948 12.6385 8.2399 12.6704 8.16959L12.6714 8.16739C12.984 7.48132 13.3732 6.83284 13.8314 6.23428C13.8889 6.15657 13.9168 6.06037 13.9093 5.96299C13.9018 5.86447 13.8587 5.77157 13.7876 5.70188L13.7806 5.695L12.2881 4.2024C12.288 4.20234 12.2881 4.20246 12.2881 4.2024C12.2478 4.16228 12.1996 4.13081 12.1467 4.11031ZM11.892 2.08503C12.2258 2.07015 12.5589 2.12494 12.8703 2.24579C13.1817 2.36664 13.4646 2.55091 13.701 2.78686L15.1918 4.27772C15.6063 4.68597 15.8593 5.23056 15.9035 5.81092C15.9479 6.39318 15.7792 6.97183 15.4281 7.43874L15.4225 7.44617C15.0546 7.92614 14.7422 8.44629 14.4913 8.99677L13.5813 8.58208L14.4923 8.99457C14.3025 9.4138 13.9963 9.76967 13.61 10.0199C13.2238 10.2701 12.7739 10.4041 12.3138 10.4062L12.3082 10.4063L11.8377 10.4058C11.581 11.7151 11.5826 13.0628 11.8424 14.3728L12.3217 14.3733C12.7818 14.3763 13.2313 14.5112 13.6171 14.7615C14.0025 15.0117 14.3084 15.3668 14.4987 15.785C14.7507 16.3359 15.0642 16.8568 15.4332 17.3376L15.4386 17.3447C15.7936 17.816 15.9635 18.4014 15.9154 18.9897C15.8678 19.5734 15.6088 20.1195 15.187 20.5256L13.7072 22.0054C13.7067 22.0059 13.7061 22.0065 13.7056 22.0071C13.4699 22.2442 13.1872 22.4296 12.8758 22.5513C12.5636 22.6733 12.2294 22.7286 11.8946 22.7138C11.5599 22.6991 11.2319 22.6146 10.9317 22.4659C10.6315 22.3172 10.3655 22.1075 10.1509 21.8503L10.1394 21.8363C8.67703 20.0182 7.66044 17.8833 7.17131 15.6029C6.70065 13.4973 6.69847 11.3147 7.16507 9.20959C7.65289 6.9203 8.67305 4.77889 10.1431 2.95873L10.1531 2.94659C10.3671 2.68994 10.6323 2.48079 10.9318 2.33246C11.2312 2.18413 11.5582 2.09991 11.892 2.08503Z" fill="#3F5199"/>
</g>
</svg>
