<svg width="20" height="20" viewBox="0 0 20 20" fill="none" xmlns="http://www.w3.org/2000/svg">
<g id="Frame 1">
<path id="Vector" d="M10.8891 17C4.05594 17 0.15984 11.7542 0 3.01121H3.43656C3.54645 9.42274 6.06394 12.1353 8.06194 12.6958V3.01121H11.2887V8.53723C13.2567 8.30184 15.3347 5.77982 16.034 3H19.2507C18.9885 4.43897 18.4645 5.80179 17.7116 7.00332C16.9588 8.20484 15.9932 9.21926 14.8751 9.98319C16.1228 10.68 17.2247 11.6656 18.1081 12.8751C18.9914 14.0846 19.6363 15.4905 20 17H16.4535C15.6943 14.3435 13.7962 12.281 11.2887 12.0008V17H10.8991H10.8891Z" fill="white"/>
</g>
</svg>
